<svg width="359" height="364" viewBox="0 0 359 364" fill="none" xmlns="http://www.w3.org/2000/svg">
<path d="M190.812 117.905C190.383 120.692 188.31 125.338 181.95 126.624C180.736 126.838 179.592 126.838 178.663 126.624C178.02 126.481 177.377 126.266 176.806 125.909C175.234 124.98 173.947 123.408 173.09 121.693C172.375 120.407 171.946 119.049 171.66 117.905H190.812ZM182.239 106.76C183.597 106.617 184.74 106.76 185.669 107.117C187.598 107.832 188.885 109.475 189.742 111.333C190.385 112.905 190.743 114.549 190.814 115.979H171.734C172.163 114.478 173.02 112.691 174.378 110.976C176.093 108.903 178.666 107.117 182.239 106.76ZM190.883 73.5283C190.668 76.3868 190.169 79.8888 189.025 82.6758C188.025 85.1055 187.382 89.107 187.024 92.9658C186.667 96.7532 186.524 100.612 186.524 103.042C186.167 103.757 185.809 104.4 185.452 104.9C184.738 104.686 184.023 104.614 183.165 104.614C183.237 102.899 183.308 100.612 183.165 98.1826C183.022 95.2527 182.593 92.0368 181.521 89.75C180.807 88.1779 180.164 86.1769 179.521 84.0332C178.949 81.9609 178.377 79.7457 177.948 77.8877L181.379 81.6035C181.665 81.8892 182.022 81.961 182.379 81.8896C182.736 81.8182 183.022 81.5321 183.094 81.1748L184.523 74.6719L186.667 78.5303C186.81 78.8161 187.167 79.0312 187.524 79.0312C187.882 79.0312 188.239 78.8161 188.382 78.5303L190.883 73.5283Z" fill="#6BBF59"/>
<path d="M177.091 208.662C177.234 210.02 177.377 211.307 177.52 212.522C178.449 219.81 179.449 226.099 180.449 231.744C180.521 232.173 180.592 232.674 180.663 233.103C181.521 238.176 182.307 242.822 182.879 247.181C184.022 256.471 184.022 264.903 181.378 275.265C179.806 274.979 178.662 273.621 177.447 271.192C177.161 270.691 176.876 270.191 176.59 269.619C175.304 267.19 173.731 264.259 171.302 261.615C170.015 260.258 168.014 258.471 165.585 256.256C165.013 255.684 164.37 255.113 163.727 254.541C162.154 234.746 171.159 216.809 177.091 208.662ZM178.948 208.304C186.523 215.021 199.458 231.601 201.602 254.683C198.958 257.541 196.385 260.686 193.955 263.759C192.598 265.402 191.311 266.974 190.097 268.403C188.31 270.547 186.738 272.263 185.309 273.549C184.594 274.121 184.022 274.621 183.45 274.906C185.951 264.616 185.88 256.183 184.736 246.965C184.165 242.534 183.379 237.889 182.521 232.816C182.45 232.316 182.378 231.887 182.307 231.387C181.378 225.741 180.306 219.452 179.377 212.234C179.234 211.02 179.091 209.661 178.948 208.304ZM177.807 169.502C188.526 176.791 209.322 198.516 216.825 235.461C216.111 236.89 215.395 238.177 214.752 239.392C213.466 241.678 212.251 243.608 211.107 245.18C209.964 246.752 209.035 247.824 208.249 248.396C206.605 249.61 204.962 251.111 203.39 252.755C200.531 228.387 186.167 211.379 178.735 205.519C177.878 195.085 177.664 182.151 177.807 169.502ZM176.521 145.346C176.236 152.206 176.021 159.925 175.878 167.785C175.664 181.006 175.806 194.727 176.735 205.732C171.018 212.949 160.586 231.458 161.586 252.61C152.224 243.964 138.86 230.528 129.284 212.091C127.855 197.87 135.502 183.649 145.864 171.572C155.726 160.139 167.803 150.777 176.521 145.346ZM178.448 144.99C190.954 150.922 216.538 171.074 228.115 209.878C224.971 218.239 221.469 226.171 218.182 232.674C209.892 195.514 188.382 173.861 177.806 167.215C177.949 159.426 178.162 151.779 178.448 144.99ZM176.805 127.982C177.019 128.124 177.233 128.196 177.447 128.268C177.161 132.269 176.876 137.343 176.661 142.988C167.728 148.42 154.794 158.21 144.432 170.287C135.07 181.149 127.71 193.941 127.21 207.233C123.994 197.871 124.852 187.509 127.567 178.005C130.64 167.071 136.071 157.352 140.216 151.635C153.794 148.562 169.658 141.702 176.805 127.982ZM181.737 128.624C200.174 151.492 221.685 157.637 238.192 157.352C239.121 158.852 239.551 161.282 239.551 164.569C239.551 168.142 238.979 172.43 237.979 177.289C236.192 186.15 232.976 196.656 229.188 206.875C216.897 168.357 190.956 148.49 178.521 142.916C178.807 137.485 179.022 132.626 179.308 128.695C180.094 128.767 180.88 128.767 181.737 128.624ZM168.017 118.691C167.302 119.548 166.444 120.478 165.372 121.621C162.871 124.265 159.369 127.552 155.082 131.125C146.578 138.271 134.929 146.418 122.138 151.992C108.846 157.781 94.4103 160.782 80.6182 157.209C73.3292 155.351 66.9694 153.064 61.3955 150.491C70.6141 149.276 83.5485 146.847 95.8398 142.774C102.772 140.487 109.56 137.7 115.349 134.27C120.994 130.982 125.711 127.123 128.855 122.621C132 122.55 135.073 122.407 138.074 122.264C143.076 122.049 147.793 121.764 152.152 121.335C158.369 120.692 163.8 119.834 168.017 118.691ZM192.742 117.903C193.814 117.975 195.029 117.975 196.172 118.046C201.103 124.478 210.25 133.554 221.97 140.557C232.903 147.06 246.053 151.776 260.131 150.776C258.63 151.562 256.772 152.348 254.699 152.991C250.412 154.349 244.98 155.349 238.835 155.492C222.827 155.778 201.961 150.061 183.881 128.122C190.241 126.193 192.385 121.119 192.742 117.903ZM170.089 119.333C170.375 120.405 170.804 121.548 171.376 122.62C172.234 124.335 173.448 125.98 175.092 127.123C168.231 140.201 152.938 146.918 139.432 149.919C135.144 150.848 131.071 151.42 127.498 151.706C138.718 146.204 148.794 138.985 156.44 132.625C160.728 128.981 164.301 125.622 166.873 122.978C168.159 121.691 169.16 120.477 169.946 119.548C169.946 119.477 170.017 119.405 170.089 119.333ZM198.743 118.191C202.388 118.262 206.247 118.405 210.249 118.477C217.967 118.62 226.399 118.691 235.117 118.619C240.834 122.907 250.911 129.053 262.845 133.841C273.778 138.272 286.427 141.63 298.647 141.344C292.573 144.702 286.213 145.132 280.354 145.275H278.138C275.565 145.346 273.064 145.346 270.849 145.632C268.133 145.989 265.56 146.775 263.56 148.49C248.624 150.634 234.546 145.846 222.969 138.914C212.321 132.554 203.745 124.336 198.743 118.191ZM84.2627 121.909C95.6252 122.338 107.203 122.695 118.279 122.767C121.138 122.767 123.853 122.767 126.568 122.695C123.638 126.411 119.493 129.698 114.491 132.628C108.846 135.987 102.2 138.703 95.3398 140.989C81.7622 145.42 67.3983 147.993 58.1797 148.922C50.5333 145.135 44.5304 140.846 40.0283 136.701C46.1026 136.13 54.6066 134.987 62.6816 132.843C67.2552 131.628 71.6862 130.127 75.4736 128.269C79.0463 126.554 82.1904 124.41 84.2627 121.909ZM272.992 117.264C276.78 119.693 283.354 122.909 291.215 125.124C298.361 127.197 306.651 128.34 314.798 127.125C310.296 131.984 305.793 136.344 302.006 139.202C289.071 140.274 275.493 136.845 263.631 132.057C253.197 127.841 244.264 122.623 238.404 118.55C241.763 118.478 245.122 118.408 248.552 118.336C256.77 118.122 264.988 117.764 272.992 117.264ZM28.3779 118.191C42.1701 119.405 61.5362 120.835 81.6885 121.693C79.902 123.479 77.4003 125.051 74.542 126.481C70.8976 128.267 66.6102 129.696 62.1084 130.911C53.39 133.27 44.0995 134.412 38.0967 134.841C34.1665 130.911 31.5936 127.195 30.0215 124.122C29.2354 122.55 28.7349 121.12 28.5205 119.977C28.3777 119.262 28.3779 118.691 28.3779 118.191ZM332.377 105.972C328.161 111.474 322.587 118.407 316.941 124.838C308.366 126.624 299.434 125.552 291.716 123.337C285.499 121.622 280.139 119.193 276.352 117.12C290.501 116.048 303.793 114.476 314.512 112.046C320.3 110.76 325.303 109.259 329.376 107.473C330.448 106.973 331.448 106.472 332.377 105.972ZM48.5312 106.758C60.037 103.328 89.0502 101.542 115.276 120.765C105.057 120.693 94.3377 120.407 83.9043 120.05C63.3234 119.121 43.5285 117.692 29.3076 116.405C29.522 116.191 29.8792 115.905 30.2363 115.619C31.2368 114.833 32.6666 114.047 34.4531 113.19C36.5253 112.118 39.0978 110.975 42.0273 109.689C44.0283 108.76 46.173 107.83 48.5312 106.758ZM84.0479 85.5343C91.7657 87.035 103.557 90.608 114.134 96.4679C124.567 102.256 133.643 110.189 136.787 120.408C134.072 120.551 131.213 120.622 128.354 120.693C125.21 120.765 121.923 120.765 118.564 120.765C95.911 103.042 70.7559 101.256 55.8203 103.257C64.3957 98.9692 74.1861 93.3951 84.0479 85.5343ZM109.917 71.9572C116.349 74.3869 125.996 79.675 134.357 87.7501C142.647 95.7538 149.65 106.402 151.008 119.551C147.22 119.908 143.147 120.123 138.717 120.337C135.429 109.118 125.71 100.684 114.991 94.7531C104.915 89.179 93.8383 85.6771 85.9775 83.962C93.195 78.6026 101.485 74.6727 109.917 71.9572ZM136.357 66.4532C142.575 69.3118 151.436 75.172 158.153 83.7472C164.871 92.3225 169.444 103.471 167.229 116.905C163.441 117.977 158.582 118.764 152.865 119.264C151.436 105.472 144.146 94.4662 135.643 86.2482C127.996 78.8876 119.277 73.7422 112.774 70.9552C121.064 68.5255 129.211 67.1679 136.357 66.4532ZM275.994 73.0284C286.785 76.4586 295.432 79.7458 302.436 82.7472C295.575 84.2479 285.999 87.2491 276.494 92.1085C265.561 97.6111 254.628 105.544 247.91 116.406C243.766 116.478 239.549 116.549 235.404 116.62C227.115 116.763 219.111 116.692 211.679 116.549C226.471 83.0336 260.487 73.5287 275.994 73.0284ZM248.697 67.3829C254.414 67.5259 260.632 68.4543 267.135 70.4552C268.421 70.8125 269.708 71.2414 270.994 71.5988C253.557 73.8141 223.257 84.8197 209.607 116.62C205.463 116.477 201.532 116.406 197.816 116.263C200.032 104.114 208.679 93.5379 218.826 85.1769C229.117 76.6016 240.908 70.4558 248.697 67.3829ZM305.582 84.1046C316.301 89.0354 322.804 93.1804 327.378 96.1818C327.807 96.4675 328.164 96.7534 328.593 97.0392C330.308 98.111 331.737 99.1117 333.023 99.8263C334.024 100.398 334.953 100.827 335.882 101.112C334.238 102.685 331.808 104.257 328.664 105.614C324.734 107.329 319.874 108.83 314.157 110.116C302.795 112.689 288.503 114.333 273.21 115.333C265.706 115.833 257.988 116.191 250.342 116.405C256.845 106.544 267.064 99.1828 277.426 93.8947C288.145 88.4636 298.865 85.3195 305.582 84.1046ZM140.146 66.0958C144.79 65.81 148.792 65.8094 151.865 65.9523C155.724 67.7388 161.656 70.8122 166.873 74.2423C169.588 76.0287 172.018 77.8866 173.947 79.673C175.877 81.5309 177.235 83.2465 177.735 84.7472C178.378 86.8909 179.093 89.0353 179.808 90.6788C180.736 92.6083 181.165 95.5384 181.308 98.3966C181.451 100.826 181.379 103.256 181.236 104.9C177.449 105.543 174.734 107.472 172.876 109.759C171.09 111.903 170.089 114.404 169.66 116.191C169.517 116.262 169.445 116.262 169.303 116.191C171.304 102.47 166.515 91.107 159.727 82.4601C153.795 74.8852 146.22 69.383 140.146 66.0958ZM243.621 67.3829C236.046 70.8131 226.328 76.3872 217.538 83.6046C207.176 92.1799 198.1 103.256 195.813 116.119C194.742 116.048 193.741 116.048 192.74 115.977C192.669 114.405 192.311 112.475 191.525 110.617C190.668 108.688 189.382 106.83 187.31 105.758C187.595 105.115 187.952 104.471 188.238 103.757C192.74 95.3245 201.102 84.6766 213.107 77.1017C221.54 71.8136 231.687 67.9547 243.621 67.3829ZM190.385 11.9982C194.815 16.0716 201.818 25.2187 203.104 37.5812C203.962 45.442 206.107 50.5875 208.036 55.2325C208.393 56.0184 208.679 56.733 208.965 57.4474C211.037 62.5926 212.538 67.5243 211.466 75.7423C200.89 82.5311 193.101 91.607 188.241 99.5392C188.313 97.6097 188.456 95.3941 188.67 93.1788C189.027 89.32 189.598 85.6039 190.527 83.4601C192.528 78.7436 192.671 72.0975 192.528 69.382C192.457 68.9534 192.171 68.5961 191.742 68.5245C191.315 68.4535 190.888 68.6659 190.673 69.0206C190.885 63.4448 190.956 54.9047 190.885 45.7277C190.813 33.9366 190.599 21.0023 190.385 11.9982ZM162.943 51.4435C169.232 52.7298 173.52 57.7327 176.379 63.7355C178.737 68.5948 180.023 73.9548 180.595 78.171L176.735 74.0255C176.45 73.6687 175.95 73.5976 175.593 73.8116C175.235 74.026 175.02 74.4552 175.092 74.8839C175.306 75.9558 175.593 77.5275 176.021 79.2423C175.664 78.9565 175.307 78.5996 174.949 78.2423C172.948 76.3843 170.376 74.4546 167.66 72.6681C162.444 69.3094 156.655 66.3083 152.725 64.4503C152.653 57.6617 157.083 53.5164 159.37 52.087C160.728 51.9441 161.943 51.6579 162.943 51.4435ZM190.671 69.0958V69.0245C190.672 69.0233 190.672 69.0218 190.673 69.0206C190.672 69.0457 190.672 69.0708 190.671 69.0958ZM188.385 11.6398C188.599 20.644 188.813 33.7935 188.885 45.7277C188.956 54.6602 188.957 62.95 188.742 68.381C186.67 63.2359 183.382 58.7335 179.881 55.089C175.879 50.9443 171.519 47.7996 168.304 45.9415C170.59 44.4409 172.02 42.4399 172.592 40.2247C173.235 37.7236 172.948 34.9361 172.091 32.2921C174.52 28.7905 178.237 23.6455 181.667 19.215C183.453 16.9997 185.168 14.9267 186.598 13.3546C187.312 12.6401 187.885 12.0685 188.385 11.6398Z" fill="#08A045"/>
<path fill-rule="evenodd" clip-rule="evenodd" d="M164.301 49.8036C171.019 51.5187 175.521 57.0213 178.451 63.0241C180.38 67.0975 181.667 71.5996 182.381 75.4585L183.167 71.8854C183.239 71.4566 183.596 71.1708 183.953 71.0993C184.311 71.0279 184.739 71.2423 184.954 71.5996L187.455 76.1017L188.67 73.672C187.241 66.8831 183.239 61.0232 178.808 56.3781C174.52 51.876 169.804 48.6602 166.66 47.0166C165.945 47.3024 165.23 47.5883 164.444 47.8741C164.373 48.5173 164.373 49.1605 164.301 49.8036Z" fill="#FFCE1F"/>
<path fill-rule="evenodd" clip-rule="evenodd" d="M164.231 45.8725C164.945 45.6581 165.588 45.3723 166.16 45.0864C168.947 43.6572 170.376 41.7992 170.948 39.7268C171.52 37.5829 171.234 35.0817 170.376 32.5091C169.09 28.7216 166.517 24.7912 163.945 21.6469C162.658 20.0747 161.372 18.7169 160.229 17.645C159.085 16.5731 158.085 15.9299 157.513 15.644C155.441 14.715 154.369 15.0009 153.726 15.5726C153.011 16.2157 152.511 17.645 152.439 19.6459C152.439 20.3605 152.439 21.1466 152.511 21.9327C152.725 24.291 152.082 26.0061 151.01 27.1494C150.724 27.4353 150.367 27.7211 150.081 27.9355C157.227 31.5801 163.373 37.3685 164.231 45.8725Z" fill="#FFCE1F"/>
<path fill-rule="evenodd" clip-rule="evenodd" d="M147.866 26.7919C148.367 26.649 149.081 26.3631 149.653 25.7914C150.296 25.1483 150.796 24.0049 150.653 22.0754C150.582 21.4322 150.582 20.7891 150.582 20.1459C149.224 19.4313 147.223 18.5738 145.437 18.0735C144.436 17.7877 143.436 17.6447 142.721 17.7162C141.935 17.7877 141.506 18.0021 141.292 18.2879C140.577 19.1455 140.363 20.3603 140.506 21.6466C140.577 22.7186 140.934 23.719 141.22 24.3622C143.364 24.9339 145.651 25.7914 147.866 26.7919Z" fill="#FFCE1F"/>
<path fill-rule="evenodd" clip-rule="evenodd" d="M162.371 49.8042C162.443 48.9466 162.443 48.0891 162.443 47.2315C162.085 38.2988 155.439 32.3674 147.364 28.7228C145.077 27.6509 142.648 26.7934 140.218 26.0787C136.502 25.0068 132.929 24.3637 129.927 24.0063C128.212 28.1511 126.997 37.2268 134.358 44.5874C137.574 47.8032 141.933 49.5183 146.435 50.3044C150.937 51.0905 155.582 50.8761 159.227 50.3759C160.37 50.1615 161.442 49.9471 162.371 49.8042Z" fill="#FFCE1F"/>
<path d="M219.114 305.135C220.829 306.492 222.616 307.778 224.402 309.064C224.831 310.565 225.189 313.139 225.546 316.426C225.903 319.927 226.189 324.143 226.403 328.502C226.832 336.72 227.118 345.653 227.189 351.728L218.971 350.155C221.829 334.791 220.472 315.14 219.114 305.135ZM255.417 287.198C259.562 288.056 267.137 292.916 271.067 308.352C270.567 311.71 269.995 315.64 269.495 319.356C269.066 322.143 268.709 324.86 268.352 327.218C267.994 329.647 267.637 331.648 267.279 332.935C267.136 332.649 266.993 332.363 266.922 332.077C266.422 330.719 265.778 328.647 264.992 325.717C263.349 319.785 260.99 310.281 257.703 295.56C257.06 292.558 256.275 289.771 255.417 287.198ZM251.555 282.482C252.055 283.697 252.627 284.983 253.056 286.341C254.128 289.199 255.057 292.415 255.843 295.917C259.13 310.638 261.559 320.214 263.203 326.146C263.703 328.146 264.132 329.79 264.561 331.005C263.632 330.362 262.559 329.718 261.345 329.004C258.844 327.503 255.771 325.717 252.341 323.787C251.055 323.073 249.697 322.287 248.339 321.501C239.12 296.918 246.481 285.627 251.555 282.482ZM245.768 272.479C247.483 274.837 249.199 277.552 250.699 280.768C244.696 284.269 237.407 296.203 245.768 320C240.408 316.927 234.62 313.426 229.046 309.781C224.901 294.703 227.116 285.484 231.189 279.981C235.191 274.622 241.266 272.622 245.768 272.479ZM238.478 264.976C240.407 266.476 242.336 268.263 244.266 270.55C239.549 271.121 233.69 273.337 229.616 278.768C225.186 284.627 223.113 293.918 226.543 308.139C226.329 307.996 226.043 307.782 225.757 307.567C223.184 305.781 220.683 303.994 218.396 302.136C216.467 300.564 214.68 298.992 213.036 297.42C210.892 284.628 214.752 276.695 220.326 271.836C225.9 266.977 233.261 265.19 238.478 264.976ZM241.694 265.118C244.41 265.618 248.269 267.262 252.699 270.835C258.845 275.766 266.063 284.484 273.138 299.062C272.78 299.849 272.423 301.063 272.137 302.35C271.994 302.85 271.922 303.421 271.779 303.993C267.134 289.987 259.202 285.484 254.629 285.056C254.057 283.555 253.485 282.125 252.842 280.696C251.055 276.838 249.055 273.55 246.982 270.835C245.267 268.62 243.481 266.69 241.694 265.118ZM236.907 261.615C240.266 258.4 245.911 255.399 253.129 256.185C260.847 257.042 270.565 262.187 281.142 276.551C279.569 285.984 275.997 293.416 274.139 296.989C267.207 282.983 260.061 274.408 253.844 269.405C247.698 264.403 242.338 262.83 239.051 263.116C238.408 262.545 237.693 262.115 236.907 261.615ZM225.259 259.83C227.688 259.83 231.19 260.616 234.978 262.76C235.335 262.903 235.62 263.118 235.978 263.332C230.69 263.975 224.258 266.047 219.113 270.478C213.396 275.408 209.537 283.341 210.823 295.204C206.25 290.345 203.534 285.628 203.534 281.197C203.534 271.979 207.751 266.547 212.682 263.475C215.397 261.76 218.327 260.759 221.042 260.259C222.614 259.973 224.044 259.83 225.259 259.83ZM248.198 240.747C252.986 239.532 258.346 239.747 263.92 242.534C269.494 245.25 275.426 250.537 281.429 259.327C282.215 264.472 282.143 269.403 281.571 273.905C271.281 260.399 261.49 255.183 253.344 254.325C245.197 253.468 238.837 256.97 235.192 260.686C232.191 259.113 229.261 258.255 226.902 258.112C231.404 250.966 239.051 243.105 248.198 240.747ZM215.253 242.25C216.754 247.181 218.898 254.755 219.756 258.543C217.541 259.043 215.11 259.83 212.823 261.116L209.894 249.539C210.751 248.753 211.68 247.681 212.609 246.323C213.467 245.108 214.324 243.751 215.253 242.25ZM249.269 220.739C254.771 220.668 260.989 223.454 267.635 230.958C274.709 238.89 278.568 246.966 280.497 254.684C275.209 247.681 269.921 243.249 264.776 240.677C258.774 237.675 252.984 237.389 247.696 238.747C238.049 241.248 230.188 249.324 225.543 256.542C224.757 253.183 225.114 248.752 226.4 244.036C228.044 238.391 230.975 232.602 234.977 228.171C238.907 223.74 243.838 220.811 249.269 220.739Z" fill="#0B6E4F"/>
</svg>
