<svg width="364" height="364" viewBox="0 0 364 364" fill="none" xmlns="http://www.w3.org/2000/svg">
<path d="M136.772 215.89C136.13 227.138 135.165 237.904 133.559 248.188C132.755 253.651 131.791 258.954 130.666 264.096C126.81 282.253 122.15 294.787 118.775 301.053H104.153C108.974 292.858 117.009 278.718 121.829 268.595C127.132 257.187 129.863 232.119 130.666 219.747C132.594 217.979 134.684 216.694 136.772 215.89ZM137.252 249.631C157.82 238.223 202.33 218.459 230.289 221.834C232.539 223.28 234.949 224.565 237.52 225.85C233.021 226.654 228.361 228.1 224.022 229.707C179.513 230.831 149.303 247.222 135.806 258.63C136.288 255.577 136.77 252.684 137.252 249.631Z" fill="#0B6E4F"/>
<path d="M263.551 233.884C266.603 234.526 269.335 234.848 271.424 235.009C273.191 248.024 290.546 270.037 293.76 274.055C292.796 291.569 282.512 297.676 274.156 299.604C263.39 302.175 252.142 298.479 250.214 294.944C247.803 290.606 244.75 289.32 241.697 289.32C240.572 289.32 239.448 289.481 238.323 289.803C231.896 270.681 251.339 245.453 263.551 233.884ZM244.27 228.744C248.77 230.351 253.751 231.797 258.732 232.922C246.038 245.937 227.881 271.165 234.63 291.09C233.826 291.411 233.022 291.732 232.219 292.054C230.612 292.696 229.166 293.339 227.72 293.821C222.899 295.428 203.457 295.428 194.619 286.591C189.638 281.609 188.673 274.378 191.726 265.059C197.672 247.383 213.098 238.224 224.988 233.564C231.416 231.154 238.325 229.387 244.27 228.744ZM275.44 234.688C288.456 231.475 315.773 228.261 339.715 236.456C337.465 240.312 340.358 245.776 342.929 250.757C345.821 256.059 348.873 262.005 347.267 266.825C346.142 269.878 343.249 272.45 338.429 274.699C318.504 283.858 302.918 276.948 297.294 271.967C288.938 261.683 276.887 244.008 275.44 234.688ZM308.061 188.892C312.561 186.964 325.094 183.59 343.894 193.07C351.928 197.087 356.266 202.551 356.588 209.139C357.07 218.94 349.196 228.903 342.93 233.241C330.718 228.742 317.542 227.136 305.651 227.136C296.653 227.136 288.297 228.099 281.709 229.063C290.064 221.19 297.135 208.817 300.349 195.802C301.152 193.231 304.044 190.66 308.061 188.892ZM225.949 167.358C227.556 166.555 232.537 166.877 236.555 167.198C240.732 167.52 245.071 167.84 248.124 167.358C256.801 171.054 271.905 188.569 271.263 230.829C269.174 230.668 266.442 230.347 263.228 229.704C256.962 228.579 250.695 226.812 245.231 224.724H245.071C239.929 222.795 235.43 220.545 231.734 217.975C226.914 214.761 223.378 211.226 221.129 207.209C215.023 195.961 215.987 186.319 217.915 180.053C220.165 172.822 224.182 168.162 225.949 167.358ZM252.464 165.112C259.052 156.917 270.783 149.366 288.458 160.132C297.456 165.595 300.509 178.611 296.492 194.84C292.957 209.141 284.762 222.477 275.442 229.387C275.603 190.019 262.105 171.218 252.464 165.112Z" fill="#08A045"/>
<path d="M106.721 148.882C106.561 165.915 110.418 199.338 125.843 218.459C122.79 221.352 120.059 225.047 118.131 228.904C116.042 233.081 108.168 235.974 98.8483 235.974H98.527C86.6363 235.974 71.5312 231.153 64.6217 217.656C55.784 200.462 81.976 169.61 101.901 152.899C103.508 151.453 105.115 150.167 106.721 148.882ZM113.629 142.614C125.68 152.254 143.676 153.861 152.674 153.379C171.796 179.089 166.815 194.515 162.155 201.424C157.013 209.298 148.979 211.869 146.087 211.066C143.676 210.423 141.105 210.423 138.374 211.066H138.214C135 211.869 131.786 213.476 128.733 215.886C113.468 196.925 110.254 163.021 110.575 147.274C110.575 146.631 110.415 146.149 110.093 145.827C111.379 144.703 112.504 143.578 113.629 142.614ZM27.0202 125.101C53.6939 125.904 95.4725 130.404 110.256 140.205C107.685 142.616 103.988 145.991 99.1676 149.847C86.9554 159.649 55.7829 181.983 29.2702 178.127C16.576 176.199 9.02297 170.735 7.5768 161.898C5.48815 150.007 14.6478 135.867 21.8786 132.011C24.4494 130.726 26.0561 128.475 27.0202 125.101ZM158.464 92.9651C171.801 96.1787 178.389 102.927 179.836 105.498C184.817 116.586 185.138 125.906 180.961 133.458C175.497 143.26 162.643 148.241 153.323 149.366C145.289 150.008 127.132 148.723 115.562 139.082C115.723 137.636 115.562 135.868 115.08 133.78C120.382 123.335 135.647 102.285 158.464 92.9651ZM48.7155 81.0745C69.9258 78.3431 89.8503 95.6972 101.42 113.051C106.401 120.442 109.936 128.155 111.221 133.94C111.382 134.743 111.543 135.547 111.543 136.19C91.4569 123.978 39.3951 121.407 27.8258 121.085C27.9865 118.354 27.987 115.139 27.987 112.086C27.8263 98.1068 27.5053 83.8061 48.7155 81.0745ZM124.716 65.4866C131.304 62.5943 137.25 62.5944 142.231 65.4866C150.265 69.9858 154.605 80.9121 156.212 89.5892C135.323 98.4268 120.539 116.584 113.791 128.154C111.862 122.851 108.809 116.906 104.953 110.96C102.382 98.9089 103.185 74.3245 124.716 65.4866Z" fill="#6BBF59"/>
</svg>
